<?xml version="1.0" encoding="UTF-8"?>
<svg width="1150px" height="353px" viewBox="0 0 1150 353" version="1.1" xmlns="http://www.w3.org/2000/svg" xmlns:xlink="http://www.w3.org/1999/xlink">
    <defs>
        <linearGradient x1="100%" y1="50%" x2="2.05247471%" y2="50%" id="linearGradient-1">
            <stop stop-color="#FAFAFA" offset="0%"></stop>
            <stop stop-color="#EBEBEB" offset="100%"></stop>
        </linearGradient>
    </defs>
    <g id="Page-1" stroke="none" stroke-width="1" fill="none" fill-rule="evenodd">
        <g id="策略-筛选结果（预览方式-卡片）" transform="translate(-385.000000, -1745.000000)" fill="url(#linearGradient-1)">
            <g id="分组-4-copy" transform="translate(370.000000, 1725.000000)">
                <path d="M15,167.529361 C29.8061711,151.84312 47.831075,143.333333 69.0747118,142 C100.940167,140 112.939891,135.865062 128.47618,125 C144.01247,114.134938 167.567937,78 211.02083,78 C239.989426,78 259.982482,86.9759693 271,104.927908 L271,170 L15,170 L15,167.529361 Z M210,343 L251,343 C259.284271,343 266,349.715729 266,358 C266,366.284271 259.284271,373 251,373 L210,373 C201.715729,373 195,366.284271 195,358 C195,349.715729 201.715729,343 210,343 Z M241,70 C227.192881,70 216,58.8071187 216,45 C216,31.1928813 227.192881,20 241,20 C254.807119,20 266,31.1928813 266,45 C266,58.8071187 254.807119,70 241,70 Z M23,26 L151,26 C152.104569,26 153,26.8954305 153,28 L153,40 C153,41.1045695 152.104569,42 151,42 L23,42 C21.8954305,42 21,41.1045695 21,40 L21,28 C21,26.8954305 21.8954305,26 23,26 Z M23,52 L89,52 C90.1045695,52 91,52.8954305 91,54 L91,62 C91,63.1045695 90.1045695,64 89,64 L23,64 C21.8954305,64 21,63.1045695 21,62 L21,54 C21,52.8954305 21.8954305,52 23,52 Z M22,194 L264,194 C265.104569,194 266,194.895431 266,196 L266,204 C266,205.104569 265.104569,206 264,206 L22,206 C20.8954305,206 20,205.104569 20,204 L20,196 C20,194.895431 20.8954305,194 22,194 Z M22,228 L264,228 C265.104569,228 266,228.895431 266,230 L266,238 C266,239.104569 265.104569,240 264,240 L22,240 C20.8954305,240 20,239.104569 20,238 L20,230 C20,228.895431 20.8954305,228 22,228 Z M22,262 L264,262 C265.104569,262 266,262.895431 266,264 L266,272 C266,273.104569 265.104569,274 264,274 L22,274 C20.8954305,274 20,273.104569 20,272 L20,264 C20,262.895431 20.8954305,262 22,262 Z M22,296 L264,296 C265.104569,296 266,296.895431 266,298 L266,306 C266,307.104569 265.104569,308 264,308 L22,308 C20.8954305,308 20,307.104569 20,306 L20,298 C20,296.895431 20.8954305,296 22,296 Z M22,351 L86,351 C87.1045695,351 88,351.895431 88,353 L88,363 C88,364.104569 87.1045695,365 86,365 L22,365 C20.8954305,365 20,364.104569 20,363 L20,353 C20,351.895431 20.8954305,351 22,351 Z M313,167.529361 C327.806171,151.84312 345.831075,143.333333 367.074712,142 C398.940167,140 410.939891,135.865062 426.47618,125 C442.01247,114.134938 465.567937,78 509.02083,78 C537.989426,78 557.982482,86.9759693 569,104.927908 L569,170 L313,170 L313,167.529361 Z M508,343 L549,343 C557.284271,343 564,349.715729 564,358 C564,366.284271 557.284271,373 549,373 L508,373 C499.715729,373 493,366.284271 493,358 C493,349.715729 499.715729,343 508,343 Z M539,70 C525.192881,70 514,58.8071187 514,45 C514,31.1928813 525.192881,20 539,20 C552.807119,20 564,31.1928813 564,45 C564,58.8071187 552.807119,70 539,70 Z M321,26 L449,26 C450.104569,26 451,26.8954305 451,28 L451,40 C451,41.1045695 450.104569,42 449,42 L321,42 C319.895431,42 319,41.1045695 319,40 L319,28 C319,26.8954305 319.895431,26 321,26 Z M321,52 L387,52 C388.104569,52 389,52.8954305 389,54 L389,62 C389,63.1045695 388.104569,64 387,64 L321,64 C319.895431,64 319,63.1045695 319,62 L319,54 C319,52.8954305 319.895431,52 321,52 Z M320,194 L562,194 C563.104569,194 564,194.895431 564,196 L564,204 C564,205.104569 563.104569,206 562,206 L320,206 C318.895431,206 318,205.104569 318,204 L318,196 C318,194.895431 318.895431,194 320,194 Z M320,228 L562,228 C563.104569,228 564,228.895431 564,230 L564,238 C564,239.104569 563.104569,240 562,240 L320,240 C318.895431,240 318,239.104569 318,238 L318,230 C318,228.895431 318.895431,228 320,228 Z M320,262 L562,262 C563.104569,262 564,262.895431 564,264 L564,272 C564,273.104569 563.104569,274 562,274 L320,274 C318.895431,274 318,273.104569 318,272 L318,264 C318,262.895431 318.895431,262 320,262 Z M320,296 L562,296 C563.104569,296 564,296.895431 564,298 L564,306 C564,307.104569 563.104569,308 562,308 L320,308 C318.895431,308 318,307.104569 318,306 L318,298 C318,296.895431 318.895431,296 320,296 Z M320,351 L384,351 C385.104569,351 386,351.895431 386,353 L386,363 C386,364.104569 385.104569,365 384,365 L320,365 C318.895431,365 318,364.104569 318,363 L318,353 C318,351.895431 318.895431,351 320,351 Z M611,167.529361 C625.806171,151.84312 643.831075,143.333333 665.074712,142 C696.940167,140 708.939891,135.865062 724.47618,125 C740.01247,114.134938 763.567937,78 807.02083,78 C835.989426,78 855.982482,86.9759693 867,104.927908 L867,170 L611,170 L611,167.529361 Z M806,343 L847,343 C855.284271,343 862,349.715729 862,358 C862,366.284271 855.284271,373 847,373 L806,373 C797.715729,373 791,366.284271 791,358 C791,349.715729 797.715729,343 806,343 Z M837,70 C823.192881,70 812,58.8071187 812,45 C812,31.1928813 823.192881,20 837,20 C850.807119,20 862,31.1928813 862,45 C862,58.8071187 850.807119,70 837,70 Z M619,26 L747,26 C748.104569,26 749,26.8954305 749,28 L749,40 C749,41.1045695 748.104569,42 747,42 L619,42 C617.895431,42 617,41.1045695 617,40 L617,28 C617,26.8954305 617.895431,26 619,26 Z M619,52 L685,52 C686.104569,52 687,52.8954305 687,54 L687,62 C687,63.1045695 686.104569,64 685,64 L619,64 C617.895431,64 617,63.1045695 617,62 L617,54 C617,52.8954305 617.895431,52 619,52 Z M618,194 L860,194 C861.104569,194 862,194.895431 862,196 L862,204 C862,205.104569 861.104569,206 860,206 L618,206 C616.895431,206 616,205.104569 616,204 L616,196 C616,194.895431 616.895431,194 618,194 Z M618,228 L860,228 C861.104569,228 862,228.895431 862,230 L862,238 C862,239.104569 861.104569,240 860,240 L618,240 C616.895431,240 616,239.104569 616,238 L616,230 C616,228.895431 616.895431,228 618,228 Z M618,262 L860,262 C861.104569,262 862,262.895431 862,264 L862,272 C862,273.104569 861.104569,274 860,274 L618,274 C616.895431,274 616,273.104569 616,272 L616,264 C616,262.895431 616.895431,262 618,262 Z M618,296 L860,296 C861.104569,296 862,296.895431 862,298 L862,306 C862,307.104569 861.104569,308 860,308 L618,308 C616.895431,308 616,307.104569 616,306 L616,298 C616,296.895431 616.895431,296 618,296 Z M618,351 L682,351 C683.104569,351 684,351.895431 684,353 L684,363 C684,364.104569 683.104569,365 682,365 L618,365 C616.895431,365 616,364.104569 616,363 L616,353 C616,351.895431 616.895431,351 618,351 Z M909,167.529361 C923.806171,151.84312 941.831075,143.333333 963.074712,142 C994.940167,140 1006.93989,135.865062 1022.47618,125 C1038.01247,114.134938 1061.56794,78 1105.02083,78 C1133.98943,78 1153.98248,86.9759693 1165,104.927908 L1165,170 L909,170 L909,167.529361 Z M1104,343 L1145,343 C1153.28427,343 1160,349.715729 1160,358 C1160,366.284271 1153.28427,373 1145,373 L1104,373 C1095.71573,373 1089,366.284271 1089,358 C1089,349.715729 1095.71573,343 1104,343 Z M1135,70 C1121.19288,70 1110,58.8071187 1110,45 C1110,31.1928813 1121.19288,20 1135,20 C1148.80712,20 1160,31.1928813 1160,45 C1160,58.8071187 1148.80712,70 1135,70 Z M917,26 L1045,26 C1046.10457,26 1047,26.8954305 1047,28 L1047,40 C1047,41.1045695 1046.10457,42 1045,42 L917,42 C915.895431,42 915,41.1045695 915,40 L915,28 C915,26.8954305 915.895431,26 917,26 Z M917,52 L983,52 C984.104569,52 985,52.8954305 985,54 L985,62 C985,63.1045695 984.104569,64 983,64 L917,64 C915.895431,64 915,63.1045695 915,62 L915,54 C915,52.8954305 915.895431,52 917,52 Z M916,194 L1158,194 C1159.10457,194 1160,194.895431 1160,196 L1160,204 C1160,205.104569 1159.10457,206 1158,206 L916,206 C914.895431,206 914,205.104569 914,204 L914,196 C914,194.895431 914.895431,194 916,194 Z M916,228 L1158,228 C1159.10457,228 1160,228.895431 1160,230 L1160,238 C1160,239.104569 1159.10457,240 1158,240 L916,240 C914.895431,240 914,239.104569 914,238 L914,230 C914,228.895431 914.895431,228 916,228 Z M916,262 L1158,262 C1159.10457,262 1160,262.895431 1160,264 L1160,272 C1160,273.104569 1159.10457,274 1158,274 L916,274 C914.895431,274 914,273.104569 914,272 L914,264 C914,262.895431 914.895431,262 916,262 Z M916,296 L1158,296 C1159.10457,296 1160,296.895431 1160,298 L1160,306 C1160,307.104569 1159.10457,308 1158,308 L916,308 C914.895431,308 914,307.104569 914,306 L914,298 C914,296.895431 914.895431,296 916,296 Z M916,351 L980,351 C981.104569,351 982,351.895431 982,353 L982,363 C982,364.104569 981.104569,365 980,365 L916,365 C914.895431,365 914,364.104569 914,363 L914,353 C914,351.895431 914.895431,351 916,351 Z" id="合并形状"></path>
            </g>
        </g>
    </g>
</svg>