<?xml version="1.0" encoding="UTF-8"?>
<svg width="18px" height="16px" viewBox="0 0 18 16" version="1.1" xmlns="http://www.w3.org/2000/svg" xmlns:xlink="http://www.w3.org/1999/xlink">
    <g id="Page-1" stroke="none" stroke-width="1" fill="currentColor" fill-rule="evenodd">
        <g id="策略-筛选结果（预览方式-列表）" transform="translate(-1509.000000, -499.000000)" fill="currentColor">
            <g id="分组-24" transform="translate(370.000000, 481.000000)">
                <g id="4-1-copy" transform="translate(1136.000000, 14.000000)">
                    <path d="M4,13 L10,13 C10.5522847,13 11,13.4477153 11,14 L11,19 C11,19.5522847 10.5522847,20 10,20 L4,20 C3.44771525,20 3,19.5522847 3,19 L3,14 C3,13.4477153 3.44771525,13 4,13 Z M14,13 L20,13 C20.5522847,13 21,13.4477153 21,14 L21,19 C21,19.5522847 20.5522847,20 20,20 L14,20 C13.4477153,20 13,19.5522847 13,19 L13,14 C13,13.4477153 13.4477153,13 14,13 Z M4,4 L10,4 C10.5522847,4 11,4.44771525 11,5 L11,10 C11,10.5522847 10.5522847,11 10,11 L4,11 C3.44771525,11 3,10.5522847 3,10 L3,5 C3,4.44771525 3.44771525,4 4,4 Z M14,4 L20,4 C20.5522847,4 21,4.44771525 21,5 L21,10 C21,10.5522847 20.5522847,11 20,11 L14,11 C13.4477153,11 13,10.5522847 13,10 L13,5 C13,4.44771525 13.4477153,4 14,4 Z" id="Combined-Shape"></path>
                </g>
            </g>
        </g>
    </g>
</svg>