<?xml version="1.0" encoding="UTF-8"?>
<svg width="208px" height="162px" viewBox="0 0 208 162" version="1.1" xmlns="http://www.w3.org/2000/svg" xmlns:xlink="http://www.w3.org/1999/xlink">
    <!-- Generator: Sketch 51.1 (57501) - http://www.bohemiancoding.com/sketch -->
    <title>无关注</title>
    <desc>Created with Sketch.</desc>
    <defs>
        <linearGradient x1="50%" y1="100%" x2="50%" y2="0.124653394%" id="linearGradient-1">
            <stop stop-color="#FFFFFF" offset="0%"></stop>
            <stop stop-color="#EFF0F1" offset="87.3%"></stop>
            <stop stop-color="#EEEFF0" offset="94.9%"></stop>
        </linearGradient>
    </defs>
    <g id="Page-1" stroke="none" stroke-width="1" fill="none" fill-rule="evenodd">
        <g id="排行榜-筛选-列表" transform="translate(-2976.000000, -372.000000)">
            <g id="Group-12" transform="translate(2120.000000, 0.000000)">
                <g id="列表" transform="translate(370.000000, 186.000000)">
                    <g id="Group-8" transform="translate(0.000000, 50.000000)">
                        <g id="Group-18" transform="translate(481.000000, 101.000000)">
                            <g id="无关注">
                                <rect id="Rectangle-2" x="0" y="0" width="218" height="218"></rect>
                                <g id="背景组图" transform="translate(52.000000, 35.000000)">
                                    <g id="组_2_拷贝_2" transform="translate(0.000000, 101.920450)" fill="#F2F3F4" fill-rule="nonzero">
                                        <rect id="圆角矩形_6" x="0.357058512" y="0" width="120.03823" height="55.0734431" rx="5"></rect>
                                    </g>
                                    <g id="组_2_拷贝_3" transform="translate(12.103678, 0.000000)">
                                        <rect id="圆角矩形_6-2" fill="#F2F3F4" fill-rule="nonzero" x="0.357058512" y="0" width="120.03823" height="55.0734431" rx="5"></rect>
                                        <path d="M98.9475706,17.7086782 C104.128195,17.7086782 108.327921,21.9187125 108.327921,27.112053 C108.327921,32.3053936 104.128195,36.5154279 98.9475706,36.5154279 C93.766946,36.5154279 89.5672199,32.3053936 89.5672199,27.112053 C89.5672199,21.9187125 93.766946,17.7086782 98.9475706,17.7086782 Z M42.0602823,20.7420249 L82.0024209,20.7420249 C82.8380056,20.7420249 83.5153807,21.4210627 83.5153807,22.2586983 C83.5153807,23.0963338 82.8380056,23.7753716 82.0024209,23.7753716 L42.0602823,23.7753716 C41.2246977,23.7753716 40.5473225,23.0963338 40.5473225,22.2586983 C40.5473225,21.4210627 41.2246977,20.7420249 42.0602823,20.7420249 Z M23.9047648,31.0554038 L82.0024209,31.0554038 C82.8380056,31.0554038 83.5153807,31.7344416 83.5153807,32.5720771 C83.5153807,33.4097127 82.8380056,34.0887505 82.0024209,34.0887505 L23.9047648,34.0887505 C23.0691802,34.0887505 22.391805,33.4097127 22.391805,32.5720771 C22.391805,31.7344416 23.0691802,31.0554038 23.9047648,31.0554038 Z" id="圆角矩形_509_拷贝" fill="#FDFDFD"></path>
                                        <path d="M85.6335244,120.235798 C90.8141491,120.235798 95.0138752,124.445832 95.0138752,129.639172 C95.0138752,134.832513 90.8141491,139.042547 85.6335244,139.042547 C80.4528998,139.042547 76.2531737,134.832513 76.2531737,129.639172 C76.2531737,124.445832 80.4528998,120.235798 85.6335244,120.235798 Z M28.7462361,123.269144 L68.6883747,123.269144 C69.5239594,123.269144 70.2013345,123.948182 70.2013345,124.785818 C70.2013345,125.623453 69.5239594,126.302491 68.6883747,126.302491 L28.7462361,126.302491 C27.9106515,126.302491 27.2332763,125.623453 27.2332763,124.785818 C27.2332763,123.948182 27.9106515,123.269144 28.7462361,123.269144 Z M10.5907186,133.582523 L68.6883747,133.582523 C69.5239594,133.582523 70.2013345,134.261561 70.2013345,135.099196 C70.2013345,135.936832 69.5239594,136.61587 68.6883747,136.61587 L10.5907186,136.61587 C9.75513395,136.61587 9.07775877,135.936832 9.07775877,135.099196 C9.07775877,134.261561 9.75513395,133.582523 10.5907186,133.582523 Z" id="圆角矩形_509_拷贝_3" fill="#FDFDFD"></path>
                                    </g>
                                    <g id="组_2_拷贝" transform="translate(25.417725, 51.566894)">
                                        <rect id="圆角矩形_6-3" fill="#E0E2E4" fill-rule="nonzero" x="0.435732421" y="0.345801527" width="115.021256" height="55.0552431" rx="5"></rect>
                                        <path d="M22.089213,18.3153475 C27.2698377,18.3153475 31.4695638,22.5253819 31.4695638,27.7187224 C31.4695638,32.9120629 27.2698377,37.1220972 22.089213,37.1220972 C16.9085884,37.1220972 12.7088623,32.9120629 12.7088623,27.7187224 C12.7088623,22.5253819 16.9085884,18.3153475 22.089213,18.3153475 Z M39.0343627,21.3486943 L78.9765013,21.3486943 C79.812086,21.3486943 80.4894611,22.027732 80.4894611,22.8653676 C80.4894611,23.7030032 79.812086,24.382041 78.9765013,24.382041 L39.0343627,24.382041 C38.1987781,24.382041 37.5214029,23.7030032 37.5214029,22.8653676 C37.5214029,22.027732 38.1987781,21.3486943 39.0343627,21.3486943 Z M39.0343627,31.6620731 L97.1320189,31.6620731 C97.9676035,31.6620731 98.6449787,32.3411109 98.6449787,33.1787465 C98.6449787,34.0163821 97.9676035,34.6954198 97.1320189,34.6954198 L39.0343627,34.6954198 C38.1987781,34.6954198 37.5214029,34.0163821 37.5214029,33.1787465 C37.5214029,32.3411109 38.1987781,31.6620731 39.0343627,31.6620731 Z" id="圆角矩形_509_拷贝_2" fill="#F4F4F4"></path>
                                    </g>
                                    <g id="组_1" transform="translate(110.748657, 123.760546)">
                                        <path d="M16.8362166,9.71277622 C15.9586999,9.47617517 14.300496,12.7764564 13.1385429,17.0777421 C11.9765897,21.3790277 11.7526717,25.0615106 12.6362402,25.2981117 C13.5198087,25.5347127 15.1719608,22.2344315 16.333914,17.9331458 C17.4958671,13.6318602 17.7197851,9.94937726 16.8362166,9.71277622 Z" id="椭圆_3" fill="#E0E2E4"></path>
                                        <path d="M1.14984944,8.23250301 C2.13024739,8.00803536 3.97605834,11.162716 5.26510009,15.2820008 C6.55414184,19.4012857 6.80831908,22.9260346 5.82792113,23.1565689 C4.84752319,23.3871033 3.00171223,20.2202893 1.71267049,16.1010044 C0.423628743,11.9817196 0.169451497,8.45697067 1.14984944,8.23250301 Z" id="椭圆_3_拷贝" fill="#E4E4E4"></path>
                                        <path d="M9.77372028,0.473202089 C7.94606485,0.473202089 6.46336425,2.5055444 6.46336425,9.43977501 C6.46336425,16.3740056 7.94606485,25.5711129 9.77372028,25.5711129 C11.6013757,25.5711129 13.0840763,16.3679389 13.0840763,9.43977501 C13.0840763,2.51161109 11.6013757,0.473202089 9.77372028,0.473202089 Z" id="椭圆_4" fill="#C0C3C7"></path>
                                        <path d="M4.34522053,23.7996384 L14.264185,23.7996384 C15.0911392,23.7986311 15.7627047,24.4691304 15.7650411,25.2981117 L13.961593,33.6883487 C13.9601516,34.0858196 13.8011767,34.4664186 13.5196759,34.7463346 C13.2381751,35.0262506 12.8572332,35.1825288 12.4607369,35.1807553 L6.14866861,35.1807553 C5.75122401,35.1838228 5.36891141,35.0281554 5.0861692,34.7481341 C4.80342699,34.4681128 4.64351821,34.0867768 4.64176065,33.6883487 L2.83831258,25.2981117 C2.83991439,24.8990819 2.99957813,24.5170335 3.28217889,24.2360146 C3.56477966,23.9549956 3.94716776,23.7980262 4.34522053,23.7996384 Z" id="圆角矩形_5" fill="#ECEDEE"></path>
                                    </g>
                                    <g id="组_3" transform="translate(59.308024, 75.833668)">
                                        <path d="M26.3133968,34.1676175 L28.9035839,32.6691442 C28.9035839,32.6691442 30.5980989,35.6175573 31.6390152,37.4193652 L32.365236,36.9643632 C32.4630201,36.9075065 32.5794169,36.8921856 32.6885286,36.9218092 C32.7976402,36.9514328 32.8904155,37.0235436 32.9462125,37.1220972 L41.3824763,51.7549618 C42.1478713,53.0868023 41.6913203,54.7884706 40.362741,55.5557446 C39.0341618,56.3230186 37.3366599,55.8653475 36.5712642,54.5335074 L28.1410522,39.9006428 C28.0843348,39.8026186 28.0690513,39.6859361 28.0986024,39.5765567 C28.1281535,39.4671772 28.2000877,39.3741742 28.2984,39.3182403 C28.2984,39.3182403 28.6070438,39.1423061 29.0548799,38.8814383 L26.3133968,34.1676175 Z" id="矩形_6" fill="#C0C3C7"></path>
                                        <ellipse id="椭圆_8" fill="#C0C3C7" fill-rule="nonzero" cx="18.7607015" cy="18.9220169" rx="18.7607015" ry="18.8067497"></ellipse>
                                        <ellipse id="椭圆_8_拷贝" fill="#EDEEEF" fill-rule="nonzero" cx="18.7607015" cy="18.9220169" rx="15.129598" ry="15.1667336"></ellipse>
                                    </g>
                                </g>
                                <g id="人物设定" transform="translate(5.000000, 86.000000)">
                                    <path d="M48.4767347,17.802459 C48.4767347,17.802459 47.9855394,22.8429508 44.6138776,24.3593443 C44.5310243,25.3240158 44.5310243,26.294017 44.6138776,27.2586885 L56.5844898,27.2586885 L56.5844898,24.5534426 C54.0927343,23.2226377 52.5357619,20.6278473 52.5336443,17.802459 L48.4767347,17.802459 Z" id="形状_10" fill="#FAC6BA"></path>
                                    <path d="M52.7580175,18.6152459 C52.7580175,21.2840984 47.9067055,21.6480328 47.9067055,21.6480328 C48.1906241,21.0718772 48.3946428,20.4596765 48.5131195,19.8283607 C48.5879275,19.0213482 48.5879275,18.2091436 48.5131195,17.4021311 C49.1044473,18.1430364 49.9913948,18.586615 50.9387755,18.6152459 C51.4565496,18.6454507 51.9731477,18.5387595 52.4366181,18.3059016 C52.5692956,18.2386485 52.6805966,18.1357232 52.7580175,18.0086885 L52.7580175,18.6152459 Z" id="形状_14" fill="#E2A799"></path>
                                    <path d="M43.9953353,9.69885246 C42.685481,10.2204918 41.6121283,12.7559016 45.4264723,14.2419672 C46.2269388,17.104918 48.3190671,18.6455738 50.5324781,18.8518033 C52.7458892,19.0580328 56.1114869,17.5052459 56.2388338,8.98918033 C55.6869971,5.28311475 54.9532362,5.22852459 54.9532362,5.22852459 L44.7290962,4.71901639 L43.9953353,9.69885246 Z" id="形状_7" fill="#FAC6BA"></path>
                                    <path d="M44.9534694,12.664918 C44.9534694,12.664918 43.4071137,12.21 42.770379,7.87311475 C42.1336443,3.53622951 44.2985423,0.0909836066 49.5015743,0.0181967213 C54.7046064,-0.0545901639 56.0447813,1.49819672 56.3055394,2.42016393 C55.9295627,4.34901639 54.5226822,4.40360656 54.5287464,5.7804918 C52.7822741,4.9252459 47.2032653,5.19213115 46.2572595,6.2657377 C45.1657143,7.5152459 44.4986589,10.3357377 44.9534694,12.664918 Z" id="形状_8" fill="#3E4656"></path>
                                    <path d="M53.7707289,5.53180328 C53.7707289,5.53180328 55.2746356,6.02918033 55.7900875,10.73 C56.4328863,10.6511475 58.155102,5.5742623 56.0447813,3.36639344 C56.0447813,3.36639344 54.2740525,3.31786885 53.7707289,5.53180328 Z" id="形状_9" fill="#14161B"></path>
                                    <path d="M44.2257726,23.5890164 C44.2257726,23.5890164 47.3973178,25.5178689 50.5991837,25.5178689 C53.8677551,25.5178689 57.1666472,23.5890164 57.1666472,23.5890164 C57.1666472,23.5890164 66.5357434,24.4563934 69.9134694,27.6408197 C73.2911953,30.8252459 79.9435569,56.1490164 70.4895627,57.1680328 C64.0191254,56.9739344 56.7785423,50.2168852 56.7785423,50.2168852 L38.6285714,55.8154098 C38.6285714,55.8154098 24.8144606,63.5368852 25.2995918,53.1162295 C25.784723,42.6955738 25.8817493,31.5045902 30.9028571,27.7378689 C35.923965,23.9711475 44.2257726,23.5890164 44.2257726,23.5890164 Z" id="形状_11" fill="#EEEFF0"></path>
                                    <path d="M64.1161516,35.9385246 C62.9154519,38.5831148 63.2368513,42.1072131 64.3102041,44.6244262 C65.1237509,46.3789169 66.574161,47.7581081 68.3671137,48.4821311 C68.3671137,48.4821311 67.948688,46.662459 66.820758,42.5014754 C65.5776093,37.9037705 64.6255394,34.8163934 64.1161516,35.9385246 Z M37.0822157,38.6437705 C36.1604665,39.7416393 34.1714286,45.9042623 34.1835569,48.1 C34.189621,48.6701639 37.9493878,45.4918033 38.2404665,43.4659016 C38.3851279,41.775592 37.9787836,40.083864 37.0822157,38.6437705 Z" id="形状_15" fill="#D9DCDE"></path>
                                    <path d="M48.6525948,102.320164 L58.9070554,104.28541 L60.0289213,105.352951 L33.3588338,105.352951 L34.2927114,104.28541 L45.1050729,102.320164 L45.4810496,101.713607 L45.4810496,69.5660656 L31.2303207,69.5660656 C30.3930377,69.5660656 29.7142857,68.8871531 29.7142857,68.0496721 C29.7142857,67.2121912 30.3930377,66.5332787 31.2303207,66.5332787 L63.9766764,66.5332787 C64.8139594,66.5332787 65.4927114,67.2121912 65.4927114,68.0496721 C65.4927114,68.8871531 64.8139594,69.5660656 63.9766764,69.5660656 L48.5131195,69.5660656 L48.5131195,101.713607 L48.6525948,102.320164 Z" id="矩形_563" fill="#CDD0D4"></path>
                                    <path d="M34.2805831,104.631148 C34.8678608,104.626232 35.4000498,104.976299 35.6282049,105.517597 C35.8563599,106.058894 35.7353731,106.684403 35.321839,107.101526 C34.9083049,107.518648 34.2839825,107.644916 33.7409147,107.421263 C33.1978469,107.197611 32.8434025,106.668257 32.8433819,106.08082 C32.8426926,105.284629 33.4846033,104.637149 34.2805831,104.631148 Z M47.2153936,104.631148 C48.0158361,104.631148 48.664723,105.280188 48.664723,106.08082 C48.664723,106.881451 48.0158361,107.530492 47.2153936,107.530492 C46.414951,107.530492 45.7660641,106.881451 45.7660641,106.08082 C45.7660641,105.280188 46.414951,104.631148 47.2153936,104.631148 Z M60.5443732,104.631148 C61.1316509,104.626232 61.6638399,104.976299 61.891995,105.517597 C62.12015,106.058894 61.9991631,106.684403 61.5856291,107.101526 C61.172095,107.518648 60.5477726,107.644916 60.0047048,107.421263 C59.461637,107.197611 59.1071926,106.668257 59.107172,106.08082 C59.1041511,105.283672 59.7474169,104.634825 60.5443732,104.631148 Z" id="矩形_563_拷贝" fill="#CDD0D4"></path>
                                    <path d="M48.5131195,69.5660656 L48.5131195,101.107049 M45.4810496,101.107049 L45.4810496,69.5660656" id="矩形_562" fill="#CDD0D4"></path>
                                    <path d="M60.6413994,66.5332787 C60.6413994,66.5332787 40.041516,66.7819672 40.0233236,66.5332787 C37.1974344,66.5332787 32.2915452,55.1785246 43.0675219,52.1518033 C56.984723,48.2395082 63.2853644,47.0870492 65.8565598,54.8509836 C68.4277551,62.614918 77.6209913,91.4021311 77.6209913,91.4021311 L73.3760933,93.8283607 L60.6413994,66.5332787 Z" id="形状_1" fill="#47546B"></path>
                                    <path d="M47.3002915,66.5332787 C47.3002915,66.5332787 51.6300875,59.897541 55.4019825,59.485082 C52.6003499,63.6763934 52.7580175,66.5332787 52.7580175,66.5332787 L47.3002915,66.5332787 Z" id="形状_3" fill="#2E3C56"></path>
                                    <path d="M47.3002915,102.320164 L50.7932362,67.5886885 C50.7932362,67.5886885 51.1934694,57.5986885 58.1308455,58.9027869 C64.1161516,60.0309836 60.4473469,69.517541 60.4473469,69.517541 L52.1516035,102.320164 L47.3002915,102.320164 Z" id="形状_2" fill="#5D6D88"></path>
                                    <path d="M74.1583673,92.6698361 C74.831426,93.7794274 75.4134675,94.9417571 75.8987755,96.1454098 C76.2626239,97.31 77.4026822,97.2432787 79.5130029,96.0362295 C82.9271137,94.0952459 84.7827405,92.8639344 84.7827405,92.8639344 C84.7827405,92.8639344 86.0744023,90.8077049 83.0423324,91.3232787 C80.0102624,91.8388525 77.4451312,92.2877049 77.4451312,92.2877049 L76.8629738,91.1291803 L74.1583673,92.6698361 Z M48.2826822,102.126066 C48.2826875,102.934624 48.082693,103.730623 47.7005248,104.443115 C47.1062391,105.39541 45.8630904,107.72459 47.8945773,107.72459 L52.1455394,107.72459 C53.4857143,107.72459 53.5463557,105.753279 51.7574344,105.02541 C50.6598251,104.412787 51.3693294,102.126066 51.3693294,102.126066 L48.2826822,102.126066 Z" id="形状_4" fill="#353E50"></path>
                                    <path d="M54.4620408,50.9932787 C55.3267884,50.934721 56.1534862,50.6153837 56.8331195,50.077377 C57.4168458,49.7090429 58.0497489,49.4251903 58.7130029,49.2342623 L58.7069388,47.9483607 C58.7069388,47.9483607 56.1903207,46.8808197 52.3699125,48.1060656 C50.3262974,48.9491803 50.0594752,49.8468852 50.7932362,50.0288525 C50.7204665,50.2836066 51.2965598,50.6718033 51.7574344,50.605082 C51.7331778,50.8234426 52.7155685,50.975082 52.9156851,50.7991803 C53.1946356,51.1752459 54.3043732,50.9993443 54.4620408,50.9932787 Z" id="形状_12" fill="#F7B7B2"></path>
                                    <path d="M50.7932362,45.2006557 C49.9097114,45.2349965 49.0782033,44.7831085 48.6262314,44.022984 C48.1742594,43.2628595 48.1742594,42.3163208 48.6262314,41.5561963 C49.0782033,40.7960718 49.9097114,40.3441838 50.7932362,40.3785246 L50.7932362,41.1306557 C50.1855676,41.107407 49.6138421,41.4184149 49.3030991,41.9412622 C48.9923562,42.4641095 48.9923562,43.1150708 49.3030991,43.6379181 C49.6138421,44.1607654 50.1855676,44.4717734 50.7932362,44.4485246 L50.7932362,45.2006557 Z" id="椭圆_2" fill="#565D6D"></path>
                                    <rect id="圆角矩形_4" fill="#959DB0" fill-rule="nonzero" x="50.4111953" y="39.22" width="5.02110787" height="6.95721311" rx="2"></rect>
                                    <path d="M59.4285714,24.6808197 C57.1969679,25.7786885 59.9015743,27.9319672 57.1666472,28.9934426 C53.995102,30.2247541 51.6725364,31.4985246 52.7580175,35.5988525 C53.1728649,37.0989602 52.3874865,38.6700885 50.9387755,39.2381967 L54.5772595,39.2381967 C61.2963265,36.2539344 56.1478717,33.4091803 59.6772012,31.8867213 C63.2065306,30.3642623 67.3362099,30.8859016 69.7376093,27.7136066 C66.7381209,25.5757523 63.1075977,24.5076989 59.4285714,24.6808197 Z" id="形状_17" fill="url(#linearGradient-1)"></path>
                                    <path d="M44.5168513,45.267377 C46.148105,45.0186885 46.5422741,45.5767213 48.6162099,45.2977049 C49.9442566,45.0247541 50.4051312,44.812459 50.4051312,42.8896721 C50.4614405,42.4667084 50.3157374,42.0418658 50.0117131,41.7425397 C49.7076888,41.4432137 49.2806962,41.3042108 48.8587755,41.3672131 C49.313586,41.2398361 49.7865889,40.985082 49.7380758,40.6636066 C49.6834985,40.2268852 49.271137,40.0752459 48.1310787,40.2996721 C46.6503558,40.6742285 45.2790168,41.3933125 44.1287464,42.3983607 C44.1287464,42.3983607 44.4622741,44.8670492 44.5168513,45.267377 Z" id="形状_13" fill="#F7B7B2"></path>
                                    <rect id="圆角矩形_1" fill="#F5F5F5" fill-rule="nonzero" x="0" y="108.877049" width="208" height="1.93491803" rx="0.967459016"></rect>
                                </g>
                            </g>
                        </g>
                    </g>
                </g>
            </g>
        </g>
    </g>
</svg>