<?xml version="1.0" encoding="UTF-8"?>
<svg width="19px" height="16px" viewBox="0 0 19 16" version="1.1" xmlns="http://www.w3.org/2000/svg" xmlns:xlink="http://www.w3.org/1999/xlink">
    <g id="Page-1" stroke="none" stroke-width="1" fill="currentColor" fill-rule="evenodd">
        <g id="策略-筛选结果（预览方式-列表）" transform="translate(-1475.000000, -499.000000)" fill="currentColor">
            <g id="分组-24" transform="translate(370.000000, 481.000000)">
                <g id="4-5-copy" transform="translate(1102.000000, 14.000000)">
                    <path d="M4,4 L20.011922,4 C20.5642067,4 21.011922,4.44771525 21.011922,5 L21.011922,7 C21.011922,7.55228475 20.5642067,8 20.011922,8 L4,8 C3.44771525,8 3,7.55228475 3,7 L3,5 C3,4.44771525 3.44771525,4 4,4 Z M4,16 L20.011922,16 C20.5642067,16 21.011922,16.4477153 21.011922,17 L21.011922,19 C21.011922,19.5522847 20.5642067,20 20.011922,20 L4,20 C3.44771525,20 3,19.5522847 3,19 L3,17 C3,16.4477153 3.44771525,16 4,16 Z M4,10 L20.011922,10 C20.5642067,10 21.011922,10.4477153 21.011922,11 L21.011922,13 C21.011922,13.5522847 20.5642067,14 20.011922,14 L4,14 C3.44771525,14 3,13.5522847 3,13 L3,11 C3,10.4477153 3.44771525,10 4,10 Z" id="Combined-Shape"></path>
                </g>
            </g>
        </g>
    </g>
</svg>